<svg width="61" height="61" viewBox="0 0 61 61" fill="none" xmlns="http://www.w3.org/2000/svg">
<g clip-path="url(#clip0_2_99)">
<path d="M30 16.5H37V42.75C37 44.1424 36.4469 45.4777 35.4623 46.4623C34.4777 47.4469 33.1424 48 31.75 48H7.25C5.85761 48 4.52226 47.4469 3.53769 46.4623C2.55312 45.4777 2 44.1424 2 42.75L2 13H30V16.5ZM30 20V42.75C30 43.2141 30.1844 43.6592 30.5126 43.9874C30.8408 44.3156 31.2859 44.5 31.75 44.5C32.2141 44.5 32.6592 44.3156 32.9874 43.9874C33.3156 43.6592 33.5 43.2141 33.5 42.75V20H30ZM5.5 16.5V42.75C5.5 43.2141 5.68437 43.6592 6.01256 43.9874C6.34075 44.3156 6.78587 44.5 7.25 44.5H26.7975C26.5991 43.938 26.4984 43.346 26.5 42.75V16.5H5.5ZM9 30.5H23V34H9V30.5ZM9 37.5H23V41H9V37.5ZM9 20H23V27H9V20Z" fill="#00051E"/>
</g>
<path d="M32.1273 3.00027C31.1752 3.00259 30.2685 3.21806 29.4673 3.60648C27.865 4.38331 26.6686 5.77495 25.9751 7.3768C25.2816 8.97864 25.0805 10.8223 25.5975 12.5645C26.1144 14.3067 27.399 15.9128 29.4431 16.8726L30.4866 14.7045C29.007 14.0099 28.2636 13.0157 27.9283 11.886C27.5933 10.7564 27.7165 9.45764 28.2086 8.32053C28.7011 7.18342 29.5477 6.24161 30.5356 5.76287C31.5234 5.28387 32.6394 5.18931 34.0239 5.83906L34.0564 5.85525L34.0927 5.87131L50.7789 12.5006C50.4062 12.9809 50.0681 13.5009 49.7636 14.0505C49.189 15.0882 48.7383 16.2361 48.4479 17.4394C46.9935 17.4486 45.4318 17.7441 43.9201 18.6479C43.4645 17.7516 42.8264 16.9866 42.0359 16.4071C40.9916 15.642 39.7089 15.2148 38.3202 15.1544C37.487 15.1184 36.6155 15.213 35.7335 15.4517C33.1947 16.1387 30.9732 17.794 29.4635 19.9205L11.214 11.1833C11.1935 11.1722 11.1737 11.1624 11.1529 11.1512C9.90412 10.4767 8.62155 10.1734 7.40498 10.1799C6.682 10.1827 5.96396 10.2979 5.2771 10.521C3.48837 11.1024 2.03192 12.3411 1.10241 13.8694C0.1729 15.3978 -0.246439 17.2478 0.14808 19.0611C0.54247 20.8746 1.7897 22.5971 3.89225 23.755L5.07386 21.6549C3.4833 20.7789 2.77119 19.6929 2.52364 18.5552C2.27635 17.4175 2.53339 16.1721 3.1817 15.1061C3.83013 14.04 4.85503 13.1841 6.03235 12.8014C7.20993 12.4185 8.53968 12.4613 10.0324 13.2832L10.0649 13.2991L10.0974 13.3112L28.2779 22.0201C27.7191 23.308 27.4046 24.6881 27.4046 26.0836C27.4046 28.4638 28.4018 30.5125 30.0724 31.737C31.7433 32.9615 34.0228 33.329 36.3749 32.6926C41.0797 31.4197 44.7079 26.821 44.7079 22.0603C44.7079 21.7167 44.6877 21.3811 44.6468 21.0527C45.8213 20.1501 46.9079 19.867 48.0987 19.8359C48.0862 20.0539 48.0795 20.2721 48.0784 20.4904C48.0784 22.7767 48.7057 24.7189 49.9464 26.0074C51.1869 27.2961 53.1463 27.7618 54.9776 27.0594C56.8091 26.357 58.2666 24.7999 59.3146 22.9077C60.3626 21.0154 61 18.7534 61 16.4672C61 14.1811 60.3685 12.239 59.1279 10.9503C58.3525 10.1449 57.2969 9.66001 56.1677 9.58112C55.4898 9.53383 54.7872 9.63508 54.1005 9.89848C53.5954 10.0921 53.1187 10.3523 52.671 10.6653L35.0675 3.67072C35.0444 3.65993 35.0212 3.65312 34.9982 3.64245C34.0327 3.2011 33.0572 2.99783 32.1273 3.00002V3.00027ZM55.9523 11.926C56.5023 11.9216 56.9373 12.1598 57.3695 12.6087C57.8205 13.0767 58.2157 13.8534 58.4213 14.8852C57.7885 14.4616 57.0072 14.3631 56.1593 14.6883C54.0561 15.4952 52.3506 18.5751 52.3506 21.5662C52.3506 23.0839 52.7927 24.2834 53.4996 24.9956C52.7651 25.1294 52.2339 24.8944 51.7089 24.349C51.0505 23.6652 50.5069 22.3253 50.5069 20.4906C50.5069 18.6552 51.0405 16.7391 51.8916 15.2023C52.7428 13.6656 53.9113 12.5439 54.9779 12.1347C55.2442 12.0325 55.486 11.9705 55.7088 11.9419C55.7922 11.9314 55.8738 11.9265 55.9525 11.926H55.9523ZM38.056 17.5352C39.0631 17.5446 39.9172 17.8453 40.59 18.3383C41.5534 19.0443 42.2013 20.1821 42.2712 21.7714C41.3452 20.3761 39.5869 19.7395 37.5688 20.2857C34.5878 21.0923 32.1717 24.1684 32.1717 27.1598C32.1717 28.678 32.7931 29.8846 33.7961 30.5968C32.9007 30.5432 32.1325 30.2559 31.5181 29.8056C30.4972 29.0578 29.8327 27.8246 29.8327 26.0836C29.8327 22.6016 32.8653 18.7177 36.3748 17.7679C36.8136 17.6493 37.232 17.5785 37.6298 17.5513C37.7041 17.5458 37.7785 17.5417 37.853 17.5392C37.9215 17.5372 37.989 17.5346 38.0561 17.5354L38.056 17.5352Z" fill="#D2E1E6"/>
<defs>
<clipPath id="clip0_2_99">
<rect width="35" height="35" fill="white" transform="translate(2 22)"/>
</clipPath>
</defs>
</svg>
